<?xml version="1.0" encoding="utf-8"?>
<svg width="140" height="100" xmlns="http://www.w3.org/2000/svg" xmlns:svg="http://www.w3.org/2000/svg">
    <!-- Created with SVG-edit - http://svg-edit.googlecode.com/ -->
    <g>
        <title>Quizbe.org</title>
        <line fill="none" stroke="#000000" stroke-width="5" stroke-dasharray="null" stroke-linejoin="null" stroke-linecap="null" opacity="0.5" x1="168" y1="255" x2="168" y2="255" id="svg_3"/>
        <line fill="none" stroke="#000000" stroke-width="5" stroke-dasharray="null" stroke-linejoin="null" stroke-linecap="null" opacity="0.5" x1="249" y1="142" x2="249" y2="142" id="svg_9"/>
        <g id="svg_22">
            <rect stroke="#000000" fill="white" stroke-width="5" stroke-dasharray="null" stroke-linejoin="null" stroke-linecap="null" x="3.66667" y="3.66667" width="83" height="83" id="svg_2"/>
            <rect stroke="white" fill="white" stroke-width="5" stroke-dasharray="null" stroke-linejoin="null" stroke-linecap="null" x="79.66667" y="17.66667" width="15" height="38" id="svg_6"/>
            <line fill="none" stroke="#000000" stroke-width="5" stroke-dasharray="null" stroke-linejoin="null" stroke-linecap="null" opacity="0.5" x1="135.66667" y1="99.66667" x2="135.66667" y2="99.66667" id="svg_7"/>
            <line fill="none" stroke="#000000" stroke-width="5" stroke-dasharray="null" stroke-linejoin="null" stroke-linecap="null" opacity="0.5" x1="98.66667" y1="92.66667" x2="98.66667" y2="92.66667" id="svg_8"/>
            <line fill="none" stroke="#000000" stroke-width="5" stroke-dasharray="null" stroke-linejoin="null" stroke-linecap="null" opacity="0.5" x1="40.66667" y1="91.66667" x2="40.66667" y2="91.66667" id="svg_10"/>
            <path stroke="#000000" id="svg_15" d="m47.66667,66.66666l-2.68293,-8l-3.7561,-5.5l-4.29269,-4l-3.7561,-3.5l-7.5122,-4" stroke-linecap="null" stroke-linejoin="null" stroke-dasharray="null" stroke-width="3" fill="white"/>
            <path stroke="#000000" id="svg_17" d="m45.16667,67.41666l-2.37805,-8.16l-3.32927,-5.60999l-3.80488,-4.08l-3.32926,-3.57l-6.65854,-4.08" stroke-linecap="null" stroke-linejoin="null" stroke-dasharray="null" stroke-width="2" fill="white"/>
            <path stroke="#000000" id="svg_18" d="m44.66667,68.91666l-2.07317,-8.16l-2.90244,-5.61l-3.31707,-4.08l-2.90244,-3.57l-5.80488,-4.08" stroke-linecap="null" stroke-linejoin="null" stroke-dasharray="null" stroke-width="2" fill="white"/>
            <ellipse ry="2" rx="1.5" id="svg_12" cy="66.66667" cx="46.16667" stroke-linecap="null" stroke-linejoin="null" stroke-dasharray="null" stroke-width="4" fill="black" stroke="#000000"/>
            <g id="svg_21">
                <g transform="rotate(5 87.08333587646483,38.50000000000001) " id="svg_19">
                    <path d="m49.83332,70.5l5.78571,-11.69998l13.89289,-17.15387l16,-13.15383l18.49998,-10.74618l19.82141,-10.74614" stroke="#000000" id="svg_4" stroke-linecap="null" stroke-linejoin="null" stroke-dasharray="null" stroke-width="4" fill="white"/>
                    <path stroke="#000000" id="svg_5" d="m60.33332,54.5l15.7377,-4l9.44264,-2.66666l11.54099,-8l10.49181,-9.33334l8.39345,-10.66666l8.39342,-13.33334" stroke-linecap="null" stroke-linejoin="null" stroke-dasharray="null" stroke-width="4" fill="white"/>
                </g>
                <g id="svg_20">
                    <line transform="rotate(-5 86.1669845581055,39.000000000000036) " stroke="#000000" id="svg_13" y2="41" x2="89.66667" y1="37" x1="82.66667" stroke-linecap="null" stroke-linejoin="null" stroke-dasharray="null" stroke-width="2" fill="none"/>
                    <line transform="rotate(-10 99.16712188720703,29.499998092651325) " id="svg_14" stroke="#000000" y2="31.5" x2="101.66667" y1="27.5" x1="96.66667" stroke-linecap="null" stroke-linejoin="null" stroke-dasharray="null" stroke-width="2" fill="none"/>
                </g>
            </g>
        </g>
    </g>
</svg>
